<svg xmlns="http://www.w3.org/2000/svg" width="34.283" height="36.957" viewBox="0 0 34.283 36.957"><g transform="translate(10615 18354.838)"><path d="M23.987,36.956a4.992,4.992,0,0,0,4.979-3.943L34.2,5.665A4.88,4.88,0,0,0,29.227.006L10.293,0A5,5,0,0,0,5.311,3.943L.965,26.68.083,31.294a4.88,4.88,0,0,0,4.976,5.653l6.666,0h.01a5.285,5.285,0,0,0,.713-.082,5.489,5.489,0,0,0,2.838-1.416,5,5,0,0,0,1.585-3.68,5.382,5.382,0,0,0-5.554-5.092s-6.89.022-7.222.034L24.788,12.141a1.426,1.426,0,0,1,2.243,1.474L20.347,35.8a.892.892,0,0,0,.883,1.126Z" transform="translate(-10615 -18354.838)" fill="#fec107"/></g></svg>