<svg xmlns="http://www.w3.org/2000/svg" width="160.937" height="22.351" viewBox="0 0 160.937 22.351"><g transform="translate(-1.255 -1.25)"><path d="M23.839,11.479,19.182,15.5l1.419,6.01a1.7,1.7,0,0,1-2.535,1.844l-5.226-3.216L7.61,23.352a1.7,1.7,0,0,1-2.532-1.844L6.5,15.5,1.844,11.479a1.7,1.7,0,0,1,.965-2.986L8.915,8,11.27,2.3a1.693,1.693,0,0,1,3.133,0L16.757,8l6.106.493a1.7,1.7,0,0,1,.97,2.987Z" transform="translate(0 0)"/><path d="M49.839,11.479,45.182,15.5l1.419,6.01a1.7,1.7,0,0,1-2.535,1.844l-5.226-3.216L33.61,23.352a1.7,1.7,0,0,1-2.532-1.844L32.5,15.5l-4.657-4.018a1.7,1.7,0,0,1,.964-2.986L34.915,8,37.27,2.3a1.693,1.693,0,0,1,3.133,0L42.757,8l6.106.493a1.7,1.7,0,0,1,.97,2.987Z" transform="translate(8.441 0)"/><path d="M75.839,11.479,71.182,15.5l1.419,6.01a1.7,1.7,0,0,1-2.535,1.844l-5.226-3.216L59.61,23.352a1.7,1.7,0,0,1-2.532-1.844L58.5,15.5l-4.657-4.018a1.7,1.7,0,0,1,.964-2.986L60.915,8,63.27,2.3a1.693,1.693,0,0,1,3.133,0L68.757,8l6.106.493a1.7,1.7,0,0,1,.97,2.987Z" transform="translate(16.881 0)"/><path d="M101.839,11.479,97.182,15.5l1.419,6.01a1.7,1.7,0,0,1-2.535,1.844l-5.226-3.216L85.61,23.352a1.7,1.7,0,0,1-2.532-1.844L84.5,15.5l-4.657-4.018a1.7,1.7,0,0,1,.964-2.986L86.915,8,89.27,2.3a1.693,1.693,0,0,1,3.132,0L94.757,8l6.106.493a1.7,1.7,0,0,1,.97,2.987Z" transform="translate(25.322 0)"/><path d="M128.346,9.659a1.7,1.7,0,0,0-1.476-1.165L120.764,8l-2.357-5.7a1.693,1.693,0,0,0-3.133,0L112.92,8l-6.109.494a1.7,1.7,0,0,0-.97,2.987L110.5,15.5l-1.419,6.009a1.7,1.7,0,0,0,2.535,1.844l5.226-3.216,5.23,3.216a1.7,1.7,0,0,0,2.531-1.844l-1.424-6.01,4.657-4.018a1.7,1.7,0,0,0,.511-1.82Zm-1.588.566-5.039,4.346a.825.825,0,0,0-.265.819l1.539,6.5a.035.035,0,0,1,0,.028.034.034,0,0,1-.019.021c-.019.015-.024.011-.04,0l-5.663-3.482a.827.827,0,0,0-.433-.121V2.906c.025,0,.028.008.036.027L119.427,9.1a.83.83,0,0,0,.7.509l6.614.534c.017,0,.026,0,.036.03S126.775,10.215,126.758,10.225Z" transform="translate(33.761 0)"/></g></svg>