<svg xmlns="http://www.w3.org/2000/svg" width="234" height="98" viewBox="0 0 234 98"><g transform="translate(-977 -1540)"><path d="M22,1A20.982,20.982,0,0,0,1,22V76A20.982,20.982,0,0,0,22,97H212a20.982,20.982,0,0,0,21-21V22A20.982,20.982,0,0,0,212,1H22m0-1H212a22,22,0,0,1,22,22V76a22,22,0,0,1-22,22H22A22,22,0,0,1,0,76V22A22,22,0,0,1,22,0Z" transform="translate(977 1540)" fill="#dbd9d6"/><g transform="translate(1165.247 1491.67)"><path d="M-122.707,101.451a5.716,5.716,0,0,1-2.9-.719,5.153,5.153,0,0,1-1.947-2.04,6.423,6.423,0,0,1-.7-3.037,6.436,6.436,0,0,1,1.02-3.616,6.673,6.673,0,0,1,2.944-2.388,11.229,11.229,0,0,1,4.5-.834,9.289,9.289,0,0,1,1.924.162v-.487a4.33,4.33,0,0,0-.649-2.619,2.288,2.288,0,0,0-1.97-.881,2.651,2.651,0,0,0-2.735,2.249q-.185.649-.765.556l-3.153-.556a.689.689,0,0,1-.487-.3.928.928,0,0,1-.023-.626,6.028,6.028,0,0,1,2.55-3.663,8.677,8.677,0,0,1,4.938-1.321,7.1,7.1,0,0,1,5.355,1.9,7.619,7.619,0,0,1,1.854,5.54v11.66a.6.6,0,0,1-.185.44.565.565,0,0,1-.417.162h-3.013a.671.671,0,0,1-.7-.6l-.464-2.179h-.185a5.053,5.053,0,0,1-1.878,2.364,5.072,5.072,0,0,1-2.921.835Zm-.487-6.352a2.954,2.954,0,0,0,.626,1.97,2.228,2.228,0,0,0,1.739.719,2.428,2.428,0,0,0,2.2-1.275,7.375,7.375,0,0,0,.765-3.709V91.576a7,7,0,0,0-1.229-.116,4.35,4.35,0,0,0-3.013,1,3.365,3.365,0,0,0-1.09,2.643Zm13.12-12.749a.565.565,0,0,1,.162-.417.6.6,0,0,1,.44-.185h3.06a.565.565,0,0,1,.417.162.72.72,0,0,1,.232.44l.464,2.272h.185a5.261,5.261,0,0,1,1.785-2.434,4.61,4.61,0,0,1,2.782-.858,4.829,4.829,0,0,1,2.944.9,5.7,5.7,0,0,1,1.924,2.573h.186A7.758,7.758,0,0,1-93.2,82.188a4.994,4.994,0,0,1,2.851-.858,4.847,4.847,0,0,1,2.967.927A5.764,5.764,0,0,1-85.432,84.9a11.1,11.1,0,0,1,.672,4.057v11.475a.6.6,0,0,1-.186.44.565.565,0,0,1-.417.162h-3.709a.647.647,0,0,1-.44-.162.646.646,0,0,1-.162-.44v-11.1a4.411,4.411,0,0,0-.649-2.6,2.169,2.169,0,0,0-1.878-.9,2.338,2.338,0,0,0-2.063,1.066,5.658,5.658,0,0,0-.7,3.083v10.455a.6.6,0,0,1-.186.44.564.564,0,0,1-.417.162h-3.709a.647.647,0,0,1-.44-.162.646.646,0,0,1-.162-.44v-11.1a4.411,4.411,0,0,0-.649-2.6,2.169,2.169,0,0,0-1.878-.9,2.338,2.338,0,0,0-2.063,1.066,5.658,5.658,0,0,0-.7,3.083v10.455a.6.6,0,0,1-.185.44.565.565,0,0,1-.417.162h-3.709a.647.647,0,0,1-.44-.162.647.647,0,0,1-.162-.44Zm27.724,13.306a6.436,6.436,0,0,1,1.02-3.616,6.672,6.672,0,0,1,2.944-2.388,11.229,11.229,0,0,1,4.5-.834,9.289,9.289,0,0,1,1.924.162v-.487a4.331,4.331,0,0,0-.649-2.619,2.288,2.288,0,0,0-1.97-.881,2.651,2.651,0,0,0-2.735,2.249q-.185.649-.765.556l-3.153-.556a.688.688,0,0,1-.487-.3.928.928,0,0,1-.023-.626,6.027,6.027,0,0,1,2.55-3.663,8.676,8.676,0,0,1,4.937-1.321,7.1,7.1,0,0,1,5.355,1.9,7.62,7.62,0,0,1,1.854,5.54v11.66a.6.6,0,0,1-.186.44.565.565,0,0,1-.417.162h-3.014a.671.671,0,0,1-.7-.6l-.464-2.179h-.185a5.053,5.053,0,0,1-1.878,2.364,5.072,5.072,0,0,1-2.921.835,5.637,5.637,0,0,1-2.9-.719,5.152,5.152,0,0,1-1.947-2.04,6.422,6.422,0,0,1-.7-3.037ZM-77.3,95.1a2.954,2.954,0,0,0,.626,1.97,2.228,2.228,0,0,0,1.739.719,2.428,2.428,0,0,0,2.2-1.275,7.376,7.376,0,0,0,.765-3.709V91.576a7,7,0,0,0-1.229-.116,4.35,4.35,0,0,0-3.013,1A3.365,3.365,0,0,0-77.3,95.1Zm12.749,2.527a1.426,1.426,0,0,1,.278-.881l7.928-11.1h-7.418a.647.647,0,0,1-.44-.162.647.647,0,0,1-.162-.44V82.35a.565.565,0,0,1,.162-.417.6.6,0,0,1,.44-.185h12.193a.529.529,0,0,1,.417.185.529.529,0,0,1,.185.417v2.8a1.426,1.426,0,0,1-.278.881l-7.186,9.875a7.515,7.515,0,0,1,1.321-.116,14.465,14.465,0,0,1,3.06.3,14.455,14.455,0,0,1,2.921.927.8.8,0,0,1,.533.788v2.666a.545.545,0,0,1-.232.51.7.7,0,0,1-.58-.023,19.239,19.239,0,0,0-3.083-.9,14.086,14.086,0,0,0-2.9-.278,16.7,16.7,0,0,0-3.06.278,23.313,23.313,0,0,0-3.292.9.747.747,0,0,1-.58,0,.521.521,0,0,1-.232-.487Zm14.975-6.236a11.8,11.8,0,0,1,1.09-5.123,8.785,8.785,0,0,1,2.99-3.616,7.368,7.368,0,0,1,4.265-1.321,7.333,7.333,0,0,1,4.265,1.321,8.717,8.717,0,0,1,3.014,3.616,11.589,11.589,0,0,1,1.113,5.123,11.739,11.739,0,0,1-1.113,5.146,8.916,8.916,0,0,1-3.014,3.616,7.39,7.39,0,0,1-4.265,1.3,7.425,7.425,0,0,1-4.265-1.3,8.988,8.988,0,0,1-2.99-3.616A11.948,11.948,0,0,1-49.572,91.39Zm5.1,0a10.007,10.007,0,0,0,.835,4.544,2.616,2.616,0,0,0,2.411,1.576,2.664,2.664,0,0,0,2.434-1.576,9.773,9.773,0,0,0,.858-4.544,9.625,9.625,0,0,0-.858-4.52,2.661,2.661,0,0,0-2.434-1.6,2.615,2.615,0,0,0-2.411,1.6A9.854,9.854,0,0,0-44.472,91.39Zm14.14-9.04a.565.565,0,0,1,.162-.417.6.6,0,0,1,.44-.185h3.06a.565.565,0,0,1,.417.162.72.72,0,0,1,.232.44l.464,2.272h.185a5.288,5.288,0,0,1,1.831-2.434,4.895,4.895,0,0,1,2.874-.858,5.023,5.023,0,0,1,3.037.927A5.843,5.843,0,0,1-15.635,84.9a10.767,10.767,0,0,1,.7,4.057v11.475a.6.6,0,0,1-.186.44.564.564,0,0,1-.417.162h-3.709a.647.647,0,0,1-.44-.162.647.647,0,0,1-.162-.44v-11.1a4.189,4.189,0,0,0-.7-2.6,2.341,2.341,0,0,0-1.97-.9,2.462,2.462,0,0,0-2.156,1.066,5.374,5.374,0,0,0-.742,3.083v10.455a.6.6,0,0,1-.185.44.565.565,0,0,1-.417.162h-3.709a.646.646,0,0,1-.44-.162.646.646,0,0,1-.162-.44Z" fill="#171d27"/><path d="M-83.606,159.651q-.44.348-.185,1.159A6.1,6.1,0,0,0-82.7,162.6a30.487,30.487,0,0,0,8.229,7.093,37.653,37.653,0,0,0,10.223,4.172,45.89,45.89,0,0,0,11.173,1.368A44.992,44.992,0,0,0-39.169,173.1a31.126,31.126,0,0,0,11.034-5.934q1.553-1.368,1.553-2.179a.936.936,0,0,0-.255-.6.836.836,0,0,0-.835-.232,6.454,6.454,0,0,0-1.368.579,41,41,0,0,1-10.339,3.547,58.512,58.512,0,0,1-12.68,1.344,56.148,56.148,0,0,1-15.809-2.225,38.6,38.6,0,0,1-13.514-6.954,5.36,5.36,0,0,0-1.391-.858.823.823,0,0,0-.835.07Z" transform="translate(-31.752 -55.952)" fill="#ff6201"/><path d="M97.465,158.093a.8.8,0,0,0-.255.974.7.7,0,0,0,.626.417,4.234,4.234,0,0,0,1.321-.093,21.439,21.439,0,0,1,2.9-.417,14.336,14.336,0,0,1,2.619.046,2.1,2.1,0,0,1,1.391.556q.417.626-.3,2.643a18.669,18.669,0,0,1-1.9,3.918,4.288,4.288,0,0,0-.556,1.205.742.742,0,0,0,.232.742.643.643,0,0,0,.464.209,3.589,3.589,0,0,0,1.947-1.182,10.77,10.77,0,0,0,3.222-4.729,11.153,11.153,0,0,0,.626-2.967,3.566,3.566,0,0,0-.348-2.225,3.42,3.42,0,0,0-1.947-1.066,11,11,0,0,0-2.99-.417,11.827,11.827,0,0,0-5.587,1.391,7.13,7.13,0,0,0-1.461,1Z" transform="translate(-161.317 -53.234)" fill="#ff6201"/></g></g></svg>