<svg xmlns="http://www.w3.org/2000/svg" width="234" height="98" viewBox="0 0 234 98"><g transform="translate(-709 -1540)"><path d="M22,1A20.982,20.982,0,0,0,1,22V76A20.982,20.982,0,0,0,22,97H212a20.982,20.982,0,0,0,21-21V22A20.982,20.982,0,0,0,212,1H22m0-1H212a22,22,0,0,1,22,22V76a22,22,0,0,1-22,22H22A22,22,0,0,1,0,76V22A22,22,0,0,1,22,0Z" transform="translate(709 1540)" fill="#dbd9d6"/><g transform="translate(752 1571)"><path d="M127.6,25.947c0-3.483-1.491-6.561-6.534-6.561a11.9,11.9,0,0,0-5.757,1.383l.817,2.795a8.494,8.494,0,0,1,4.208-1.174c2.553,0,2.971,1.441,2.971,2.369v.224c-5.573-.009-9.1,1.917-9.1,5.838a4.634,4.634,0,0,0,4.915,4.643,5.627,5.627,0,0,0,4.482-1.985h.094s.635,2.656,4.145,1.641a23.13,23.13,0,0,1-.245-3.709Zm-4.157,3.678a2.684,2.684,0,0,1-.106.824,2.91,2.91,0,0,1-2.806,1.971,1.9,1.9,0,0,1-2.075-2.037c0-2.11,2.329-2.69,4.987-2.676" transform="translate(-42.28 -7.176)" fill="#0071ce"/><path d="M0,11.861S3.64,26.754,4.219,29.166c.682,2.82,1.9,3.862,5.425,3.168L11.92,23.1c.575-2.288.966-3.929,1.338-6.26h.063a61.441,61.441,0,0,0,1.1,6.267s.929,4.2,1.41,6.394,1.789,3.584,5.245,2.834l5.416-20.473H22.119L20.26,20.717c-.492,2.566-.939,4.587-1.287,6.938H18.91c-.314-2.326-.712-4.264-1.224-6.778L15.76,11.861H11.2L9.143,20.647c-.586,2.683-1.134,4.834-1.478,7.111H7.605c-.355-2.137-.837-4.857-1.347-7.439,0,0-1.221-6.291-1.652-8.458" transform="translate(0 -4.391)" fill="#0071ce"/><path d="M53.536,25.947c0-3.483-1.495-6.561-6.538-6.561a11.907,11.907,0,0,0-5.753,1.383l.817,2.795A8.466,8.466,0,0,1,46.27,22.39c2.553,0,2.971,1.441,2.971,2.369v.224c-5.573-.009-9.1,1.917-9.1,5.838a4.637,4.637,0,0,0,4.908,4.643,5.609,5.609,0,0,0,4.486-1.985h.1s.638,2.656,4.145,1.641a22.959,22.959,0,0,1-.242-3.709V25.947Zm-4.161,3.678a2.8,2.8,0,0,1-.1.824A2.92,2.92,0,0,1,46.46,32.42a1.9,1.9,0,0,1-2.072-2.037c0-2.11,2.329-2.69,4.987-2.676" transform="translate(-14.86 -7.176)" fill="#0071ce"/><path d="M65.012,11.861V32.327h4.161V11.861Z" transform="translate(-24.066 -4.391)" fill="#0071ce"/><path d="M155.753,11.861v15.1c0,2.084.391,3.538,1.233,4.428a4.636,4.636,0,0,0,3.39,1.289,10.081,10.081,0,0,0,3.018-.445l-.051-3.251a6.667,6.667,0,0,1-1.587.184c-1.421,0-1.89-.9-1.89-2.771v-5.78h3.624V16.7h-3.624V11.861" transform="translate(-57.657 -4.391)" fill="#0071ce"/><path d="M138.675,19.749V35.127h4.3V27.251a5.808,5.808,0,0,1,.094-1.129,3.241,3.241,0,0,1,3.4-2.712,7.2,7.2,0,0,1,1.233.115V19.494a4.415,4.415,0,0,0-5.139,3.161h-.106V19.749" transform="translate(-51.335 -7.184)" fill="#0071ce"/><path d="M75.456,19.749V35.127h4.192V26.1a3.507,3.507,0,0,1,.2-1.248,2.813,2.813,0,0,1,2.544-1.972c1.688,0,2.485,1.424,2.485,3.48v8.766h4.181V25.993a4.3,4.3,0,0,1,.173-1.24,2.623,2.623,0,0,1,2.517-1.872c1.706,0,2.531,1.394,2.531,3.817v8.429h4.178V26.059c0-4.764-2.423-6.653-5.175-6.653a5.563,5.563,0,0,0-3.038.831,6.586,6.586,0,0,0-1.949,1.909h-.063a4.387,4.387,0,0,0-4.246-2.741A4.835,4.835,0,0,0,79.5,21.831h-.063V19.749" transform="translate(-27.933 -7.184)" fill="#0071ce"/><path d="M202.365,11.875a1.523,1.523,0,0,0,1.6-.981l.815-9.231c0-.914-1.077-1.662-2.42-1.662s-2.42.748-2.42,1.662l.822,9.231a1.51,1.51,0,0,0,1.6.981" transform="translate(-74.017)" fill="#ffc220"/><path d="M189.526,19.113a1.514,1.514,0,0,0-.056-1.879l-7.609-5.321c-.791-.462-1.976.088-2.654,1.253s-.539,2.468.236,2.921l8.424,3.905a1.506,1.506,0,0,0,1.659-.887" transform="translate(-66.179 -4.35)" fill="#ffc220"/><path d="M211.559,19.107a1.549,1.549,0,0,0,1.66.9l8.424-3.916c.783-.462.9-1.754.238-2.917s-1.868-1.711-2.658-1.258l-7.611,5.315a1.553,1.553,0,0,0-.045,1.886" transform="translate(-78.212 -4.351)" fill="#ffc220"/><path d="M202.365,37.163a1.523,1.523,0,0,1,1.6.981l.815,9.231c0,.914-1.076,1.655-2.42,1.655s-2.42-.741-2.42-1.655l.822-9.231a1.51,1.51,0,0,1,1.6-.981" transform="translate(-74.017 -13.757)" fill="#ffc220"/><path d="M211.559,32.033c.431-.716,1.136-1.1,1.66-.891l8.424,3.909c.783.453.9,1.756.238,2.921s-1.868,1.706-2.658,1.253L211.613,33.9a1.53,1.53,0,0,1-.045-1.87" transform="translate(-78.212 -11.508)" fill="#ffc220"/><path d="M189.526,32.025a1.515,1.515,0,0,1-.056,1.879l-7.609,5.313c-.791.462-1.976-.09-2.654-1.246s-.539-2.468.236-2.921l8.424-3.909a1.5,1.5,0,0,1,1.659.883" transform="translate(-66.179 -11.507)" fill="#ffc220"/><path d="M231.121,42.042h.1c.142,0,.2.045.216.159a.782.782,0,0,0,.077.247h.271a.492.492,0,0,1-.07-.254.288.288,0,0,0-.2-.242v-.025a.246.246,0,0,0,.216-.236.311.311,0,0,0-.094-.224.734.734,0,0,0-.368-.078,1.706,1.706,0,0,0-.393.038v1.021h.24Zm.007-.465.123-.016c.144,0,.222.067.222.16s-.1.153-.238.153h-.106Zm.153-.692a1.035,1.035,0,1,0,1.053,1.028,1.03,1.03,0,0,0-1.053-1.028m0,.207a.825.825,0,0,1,0,1.648.825.825,0,0,1-.007-1.648" transform="translate(-85.224 -15.135)" fill="#ffc220"/></g></g></svg>