<svg xmlns="http://www.w3.org/2000/svg" width="234" height="98" viewBox="0 0 234 98"><g transform="translate(-173 -1540)"><path d="M22,1A20.982,20.982,0,0,0,1,22V76A20.982,20.982,0,0,0,22,97H212a20.982,20.982,0,0,0,21-21V22A20.982,20.982,0,0,0,212,1H22m0-1H212a22,22,0,0,1,22,22V76a22,22,0,0,1-22,22H22A22,22,0,0,1,0,76V22A22,22,0,0,1,22,0Z" transform="translate(173 1540)" fill="#dbd9d6"/><g transform="translate(177.902 1474.621)"><g transform="translate(40.098 92.378)"><path d="M143.253,131.984a11.936,11.936,0,1,1-11.936-11.936A11.774,11.774,0,0,1,143.253,131.984Zm-5.215,0a6.737,6.737,0,1,0-6.721,7.2A6.844,6.844,0,0,0,138.038,131.984Z" transform="translate(-81.261 -106.93)" fill="#ea4335"/><path d="M196.657,131.984a11.936,11.936,0,1,1-11.936-11.936A11.774,11.774,0,0,1,196.657,131.984Zm-5.215,0a6.737,6.737,0,1,0-6.721,7.2A6.844,6.844,0,0,0,191.442,131.984Z" transform="translate(-108.858 -106.93)" fill="#fbbc05"/><path d="M248.929,120.8v21.4c0,8.818-5.215,12.42-11.345,12.42a11.39,11.39,0,0,1-10.592-7.043l4.57-1.882a6.6,6.6,0,0,0,6.022,4.247c3.925,0,6.344-2.419,6.344-6.99v-1.72h-.161a8.133,8.133,0,0,1-6.291,2.688,11.8,11.8,0,0,1-11.4-11.882c0-6.721,5.484-11.99,11.4-11.99a8.133,8.133,0,0,1,6.291,2.688h.161V120.8ZM244.3,132.038c0-4.194-2.8-7.258-6.344-7.258-3.6,0-6.667,3.065-6.667,7.258,0,4.14,3.011,7.2,6.667,7.2C241.509,139.189,244.3,136.178,244.3,132.038Z" transform="translate(-136.397 -106.93)" fill="#4285f4"/><path d="M284.924,95.571v34.948h-5.108V95.571Z" transform="translate(-164.167 -94.281)" fill="#34a853"/><path d="M312.636,135.852l4.086,2.688a11.832,11.832,0,0,1-9.947,5.269,11.653,11.653,0,0,1-11.828-11.936c0-7.1,5.108-11.936,11.237-11.936,6.183,0,9.194,4.946,10.215,7.581l.538,1.344-15.915,6.613a6.046,6.046,0,0,0,5.807,3.6,6.61,6.61,0,0,0,5.807-3.226Zm-12.527-4.3,10.646-4.409a4.6,4.6,0,0,0-4.409-2.527A6.551,6.551,0,0,0,300.109,131.551Z" transform="translate(-171.986 -106.872)" fill="#ea4335"/><path d="M59.209,114.838v-5.054h17.1a17.1,17.1,0,0,1,.269,3.065c0,3.817-1.022,8.495-4.409,11.828a16.915,16.915,0,0,1-12.9,5.215,18.5,18.5,0,1,1,0-36.991,17.563,17.563,0,0,1,12.689,5.108L68.4,101.558a12.837,12.837,0,0,0-9.14-3.6,13.442,13.442,0,0,0,0,26.883,12.372,12.372,0,0,0,9.355-3.71,10.518,10.518,0,0,0,2.742-6.291Z" transform="translate(-40.498 -92.901)" fill="#4285f4"/></g></g></g></svg>