<svg xmlns="http://www.w3.org/2000/svg" xmlns:xlink="http://www.w3.org/1999/xlink" width="234" height="98" viewBox="0 0 234 98"><defs><clipPath id="a"><rect width="145.488" height="35.813" transform="translate(-233.629 -57.509)" fill="none"/></clipPath></defs><g transform="translate(-441 -1540)"><path d="M22,1A20.982,20.982,0,0,0,1,22V76A20.982,20.982,0,0,0,22,97H212a20.982,20.982,0,0,0,21-21V22A20.982,20.982,0,0,0,212,1H22m0-1H212a22,22,0,0,1,22,22V76a22,22,0,0,1-22,22H22A22,22,0,0,1,0,76V22A22,22,0,0,1,22,0Z" transform="translate(441 1540)" fill="#dbd9d6"/><g transform="translate(718.629 1628.508)" clip-path="url(#a)"><g transform="translate(-233.629 -57.509)"><path d="M224.992,31.38c.48-.16.64-.32.64-.8a.755.755,0,0,0-.8-.8h-.959v2.558h.48V31.38h.16l.8.959h.48l-.8-.959Zm-.48-.32h-.48v-.64h.48c.32,0,.64,0,.64.48.16.16-.16.16-.64.16Z" transform="translate(-81.422 -2.602)" fill="#010202" fill-rule="evenodd"/><path d="M-90.539-19.62a2.354,2.354,0,0,0-2.4,2.4,2.266,2.266,0,0,0,2.4,2.4,2.354,2.354,0,0,0,2.4-2.4A2.266,2.266,0,0,0-90.539-19.62Zm0,4.477a2.093,2.093,0,0,1-1.919-2.078A1.983,1.983,0,0,1-90.539-19.3a1.983,1.983,0,0,1,1.919,2.078,1.746,1.746,0,0,1-1.919,2.078Zm-137.494-25.42h-5.6v25.1h15.508V-20.42h-9.912V-40.564Z" transform="translate(233.629 45.84)" fill="#010202" fill-rule="evenodd"/><circle cx="3.038" cy="3.038" r="3.038" transform="translate(17.586 4.796)" fill="#010202"/><path d="M-176.12-14.891h5.276V2.216h-5.276Z" transform="translate(194.026 28.16)" fill="#010202" fill-rule="evenodd"/><path d="M-113.321-32.57h-6.555l-5.756,7.035V-40.564h-5.436v25.1h5.436v-8.314l5.6,8.314h6.715l-6.875-9.273,6.875-7.834Zm-26.54-.32a5.394,5.394,0,0,0-4.956,2.718h-.16v-2.4h-4.956v17.107h5.276v-8.314c0-2.238.48-4.477,3.2-4.477,2.558,0,2.718,2.718,2.718,4.636V-15.3h5.276v-9.273c-.16-4.8-1.119-8.314-6.4-8.314Z" transform="translate(175.993 45.84)" fill="#010202" fill-rule="evenodd"/><path d="M-26.51-33.244c-5.276,0-9.433,3.517-9.433,8.953s4.157,8.953,9.433,8.953a8.868,8.868,0,0,0,7.194-3.357l-3.677-2.878a4.5,4.5,0,0,1-3.837,2.078,3.966,3.966,0,0,1-4-3.2h12.151V-24.45c0-5.436-3.038-8.793-7.834-8.793Zm-4.157,7.035a3.5,3.5,0,0,1,3.837-3.2,3.108,3.108,0,0,1,3.2,3.2Zm26.7-4.956a6.7,6.7,0,0,0-5.436-2.4c-4.8,0-7.674,4.477-7.674,9.113,0,5.116,3.357,8.793,8.314,8.793a6.829,6.829,0,0,0,5.276-2.718h.16v2.4h4.8v-25.1H-3.808l-.16,9.912ZM-7.8-19.974c-2.558,0-4.157-1.919-4.157-4.477s1.6-4.477,4.157-4.477,4.157,1.759,4.157,4.477S-5.087-19.974-7.8-19.974Z" transform="translate(97.496 46.194)" fill="#010202" fill-rule="evenodd"/><path d="M133.255-57.509H103.2a2.566,2.566,0,0,0-2.558,2.718v30.537a2.774,2.774,0,0,0,2.558,2.718h30.057a2.566,2.566,0,0,0,2.558-2.718v-30.7A2.351,2.351,0,0,0,133.255-57.509ZM111.032-27.132h-5.276V-44.239h5.276Zm-2.558-19.345a3.036,3.036,0,0,1-3.038-3.038,3.036,3.036,0,0,1,3.038-3.038,3.036,3.036,0,0,1,3.038,3.038A2.94,2.94,0,0,1,108.474-46.477ZM130.7-27.132h-5.276v-8.314c0-1.919,0-4.636-2.718-4.636s-3.2,2.238-3.2,4.477v8.314H114.39V-44.239h4.956v2.4h.16a5.712,5.712,0,0,1,4.956-2.718c5.276,0,6.235,3.517,6.235,8.154v9.273Z" transform="translate(3.44 57.509)" fill="#010202" fill-rule="evenodd"/></g></g></g></svg>