<svg xmlns="http://www.w3.org/2000/svg" width="234" height="98" viewBox="0 0 234 98"><g transform="translate(-1245 -1540)"><path d="M22,1A20.982,20.982,0,0,0,1,22V76A20.982,20.982,0,0,0,22,97H212a20.982,20.982,0,0,0,21-21V22A20.982,20.982,0,0,0,212,1H22m0-1H212a22,22,0,0,1,22,22V76a22,22,0,0,1-22,22H22A22,22,0,0,1,0,76V22A22,22,0,0,1,22,0Z" transform="translate(1245 1540)" fill="#dbd9d6"/><g transform="translate(1282.416 1572.383)"><path d="M115.583,12.7V32.943h-3.514V17.057h-.047l-6.279,15.885H103.4L96.98,17.057h-.047V32.943H93.7V12.7h5.061l5.811,14.995h.094L110.8,12.7h4.78Zm2.905,1.546a1.782,1.782,0,0,1,.609-1.406,2.1,2.1,0,0,1,1.453-.562,2.051,2.051,0,0,1,1.5.562,1.948,1.948,0,0,1,.609,1.406,1.782,1.782,0,0,1-.609,1.406,2.128,2.128,0,0,1-1.5.562,1.941,1.941,0,0,1-1.453-.562A2.122,2.122,0,0,1,118.488,14.246Zm3.8,4.17V32.943h-3.421V18.416ZM132.64,30.459a3.948,3.948,0,0,0,1.687-.375,7.4,7.4,0,0,0,1.687-.937v3.186a5.979,5.979,0,0,1-1.874.7,11.531,11.531,0,0,1-2.3.234,6.883,6.883,0,0,1-5.2-2.015,6.992,6.992,0,0,1-2.015-5.154,8.269,8.269,0,0,1,2.062-5.764,7.418,7.418,0,0,1,5.811-2.249,8.625,8.625,0,0,1,1.921.234,6.385,6.385,0,0,1,1.546.562v3.28a6.807,6.807,0,0,0-1.593-.89,5.384,5.384,0,0,0-1.687-.328,4.274,4.274,0,0,0-3.28,1.312,4.916,4.916,0,0,0-1.218,3.561,4.689,4.689,0,0,0,1.218,3.421A4.383,4.383,0,0,0,132.64,30.459Zm13.074-12.277a3.788,3.788,0,0,1,.75.047,4.864,4.864,0,0,1,.562.141v3.468a2.1,2.1,0,0,0-.8-.375,4.808,4.808,0,0,0-1.265-.187,2.62,2.62,0,0,0-2.109,1.078,5.175,5.175,0,0,0-.89,3.28v7.31h-3.421V18.416h3.421v2.3h.047a4.414,4.414,0,0,1,1.406-1.874A4.129,4.129,0,0,1,145.714,18.182Zm1.5,7.732a8.094,8.094,0,0,1,2.015-5.717,7.455,7.455,0,0,1,5.623-2.109,6.888,6.888,0,0,1,5.3,2.015,7.737,7.737,0,0,1,1.921,5.483,7.936,7.936,0,0,1-2.015,5.623,7.309,7.309,0,0,1-5.529,2.109,7.218,7.218,0,0,1-5.342-1.968A7.52,7.52,0,0,1,147.213,25.914Zm3.561-.141a5.11,5.11,0,0,0,1.031,3.468,3.745,3.745,0,0,0,2.952,1.218,3.411,3.411,0,0,0,2.858-1.218,5.473,5.473,0,0,0,.984-3.561,5.651,5.651,0,0,0-.984-3.561,3.911,3.911,0,0,0-5.717.047A5.133,5.133,0,0,0,150.774,25.773Zm16.4-3.514a1.487,1.487,0,0,0,.469,1.171,8.015,8.015,0,0,0,2.062,1.031,7.145,7.145,0,0,1,2.858,1.828,3.8,3.8,0,0,1,.843,2.484,3.934,3.934,0,0,1-1.593,3.28,6.6,6.6,0,0,1-4.264,1.218,11.1,11.1,0,0,1-2.015-.234,8.109,8.109,0,0,1-1.874-.562V29.1a8.188,8.188,0,0,0,2.015,1.031,6.316,6.316,0,0,0,1.968.375,3.15,3.15,0,0,0,1.687-.328,1.15,1.15,0,0,0,.562-1.078,1.65,1.65,0,0,0-.562-1.218,8.653,8.653,0,0,0-2.156-1.125,6.445,6.445,0,0,1-2.671-1.781,4.258,4.258,0,0,1,.75-5.764,6.19,6.19,0,0,1,4.03-1.265,7.43,7.43,0,0,1,1.687.187c.609.141,1.171.281,1.593.422v3.327a10.093,10.093,0,0,0-1.593-.8,4.959,4.959,0,0,0-1.781-.328,2.613,2.613,0,0,0-1.5.375A1.5,1.5,0,0,0,167.175,22.259Zm7.685,3.655a8.094,8.094,0,0,1,2.015-5.717,7.455,7.455,0,0,1,5.623-2.109,6.888,6.888,0,0,1,5.3,2.015,7.737,7.737,0,0,1,1.921,5.483,7.936,7.936,0,0,1-2.015,5.623,7.309,7.309,0,0,1-5.529,2.109,7.218,7.218,0,0,1-5.342-1.968A7.723,7.723,0,0,1,174.86,25.914Zm3.561-.141a5.11,5.11,0,0,0,1.031,3.468,3.745,3.745,0,0,0,2.952,1.218,3.411,3.411,0,0,0,2.858-1.218,5.473,5.473,0,0,0,.984-3.561,5.651,5.651,0,0,0-.984-3.561,3.911,3.911,0,0,0-5.717.047A5.366,5.366,0,0,0,178.421,25.773Zm22.68-4.545h-5.108V32.943h-3.468V21.228h-2.437V18.416h2.437V16.4a5.053,5.053,0,0,1,5.3-5.2c.422,0,.8.047,1.125.047a2.238,2.238,0,0,1,.843.187v2.952a5.74,5.74,0,0,0-.609-.234,3.115,3.115,0,0,0-.984-.141,2.115,2.115,0,0,0-1.64.656,2.987,2.987,0,0,0-.562,1.968v1.734H201.1v-3.28l3.421-1.031v4.311h3.468v2.812h-3.468v6.795a3.119,3.119,0,0,0,.469,1.874,1.951,1.951,0,0,0,1.546.562,2.313,2.313,0,0,0,.7-.141,2.448,2.448,0,0,0,.7-.328v2.812a3.268,3.268,0,0,1-1.078.328,8.12,8.12,0,0,1-1.5.141,4.233,4.233,0,0,1-3.233-1.125,4.954,4.954,0,0,1-1.078-3.468l.047-7.4Z" transform="translate(-49.793 -5.952)" fill="#737373"/><rect width="16.026" height="16.026" fill="#f25022"/><rect width="16.026" height="16.026" transform="translate(17.713)" fill="#7fba00"/><rect width="16.026" height="16.026" transform="translate(0 17.713)" fill="#00a4ef"/><rect width="16.026" height="16.026" transform="translate(17.713 17.713)" fill="#ffb900"/></g></g></svg>