<svg xmlns="http://www.w3.org/2000/svg" xmlns:xlink="http://www.w3.org/1999/xlink" width="234" height="98" viewBox="0 0 234 98"><defs><clipPath id="a"><rect width="169.097" height="21.452" fill="none"/></clipPath></defs><g transform="translate(-1513 -1540)"><path d="M22,1A20.982,20.982,0,0,0,1,22V76A20.982,20.982,0,0,0,22,97H212a20.982,20.982,0,0,0,21-21V22A20.982,20.982,0,0,0,212,1H22m0-1H212a22,22,0,0,1,22,22V76a22,22,0,0,1-22,22H22A22,22,0,0,1,0,76V22A22,22,0,0,1,22,0Z" transform="translate(1513 1540)" fill="#dbd9d6"/><g transform="translate(1545 1578)"><path d="M432,.939v21.2h16.264l2.2-3.463h-15V.939Z" transform="translate(-313.601 -0.682)" fill="#e8241b"/><g transform="translate(0 0)"><g clip-path="url(#a)"><path d="M237.8,2.041l-12.7,20.146h4.2l3.83-6.086h8.184l2.151-3.462h-8.184l4.459-6.977,10.44,16.526h4.2l-12.8-20.2a2.28,2.28,0,0,0-3.777.052" transform="translate(-163.409 -0.734)" fill="#e8241b" fill-rule="evenodd"/><path d="M335.233,4.387h14.558L351.939.928l-16.811.01c-5.849,0-9.7,4.742-9.7,10.591s3.85,10.591,9.7,10.591l14.221-.017,2.226-3.433H335.233c-3.944,0-6.249-3.2-6.249-7.141s2.305-7.141,6.249-7.141" transform="translate(-236.236 -0.674)" fill="#e8241b" fill-rule="evenodd"/><path d="M24.7.963H9.7C3.85.963,0,5.7,0,11.554S3.85,22.145,9.7,22.145h15c5.849,0,9.7-4.742,9.7-10.591S30.552.963,24.7.963m0,17.732H9.7c-3.944,0-6.249-3.2-6.249-7.141S5.755,4.413,9.7,4.413h15c3.944,0,6.249,3.2,6.249,7.141S28.647,18.7,24.7,18.7" transform="translate(0 -0.699)" fill="#e8241b" fill-rule="evenodd"/><path d="M509.525,4.387h14.558L526.231.928,509.42.938c-5.849,0-9.7,4.742-9.7,10.591s3.85,10.591,9.7,10.591l14.22-.017,2.227-3.433H509.525c-3.367,0-5.522-2.327-6.086-5.462h18.336l2.2-3.462H503.439c.6-3.068,2.767-5.357,6.086-5.357" transform="translate(-362.758 -0.674)" fill="#e8241b" fill-rule="evenodd"/><path d="M150.756,13.522a6.288,6.288,0,1,0,0-12.576L133.1.939v21.2h3.882V4.4h13.771a2.838,2.838,0,0,1,0,5.676H139.712L152.17,22.11h5.013l-8.919-8.58Z" transform="translate(-96.622 -0.682)" fill="#e8241b" fill-rule="evenodd"/><path d="M604.9,0a1.891,1.891,0,1,0,1.911,1.886A1.889,1.889,0,0,0,604.9,0m0,3.467a1.529,1.529,0,0,1-1.541-1.581,1.536,1.536,0,1,1,3.072,0A1.528,1.528,0,0,1,604.9,3.467" transform="translate(-437.718 0)" fill="#e8241b" fill-rule="evenodd"/><path d="M608.365,4.142a.567.567,0,0,0,.565-.6c0-.43-.255-.62-.77-.62h-.83V5.1h.33V4.157h.38l.575.946h.371Zm-.705-.265V3.2h.45c.23,0,.475.05.475.32,0,.335-.25.355-.53.355Z" transform="translate(-440.874 -2.12)" fill="#e8241b" fill-rule="evenodd"/></g></g></g></g></svg>