<svg xmlns="http://www.w3.org/2000/svg" width="182.899" height="36.956" viewBox="0 0 182.899 36.956"><g transform="translate(10615 18354.838)"><path d="M80.492,22.37a8.208,8.208,0,0,0-3.221-3.3,10.128,10.128,0,0,0-5.129-1.213,10.848,10.848,0,0,0-5.229,1.232,8.718,8.718,0,0,0-3.559,3.539A11.364,11.364,0,0,0,62.081,28.2a11.362,11.362,0,0,0,1.272,5.567,8.649,8.649,0,0,0,3.6,3.538,11.5,11.5,0,0,0,5.468,1.233,12.191,12.191,0,0,0,3.8-.577,8.81,8.81,0,0,0,3.062-1.69A6.963,6.963,0,0,0,81.207,33.6l-4.334-1.67A4.565,4.565,0,0,1,75.2,33.8a6.024,6.024,0,0,1-5.547,0,4.39,4.39,0,0,1-1.75-2.048,6.871,6.871,0,0,1-.507-1.849H81.446q.08-.557.119-1.272t.04-1.511a9.952,9.952,0,0,0-1.113-4.752M69.5,22.589a4.647,4.647,0,0,1,2.6-.716,3.946,3.946,0,0,1,3.2,1.352,5.22,5.22,0,0,1,1.083,2.9H67.462a7.349,7.349,0,0,1,.384-1.412,4.357,4.357,0,0,1,1.65-2.127" transform="translate(-10634.337 -18360.4)" fill="#2058e1"/><path d="M173.629,22.37a8.207,8.207,0,0,0-3.221-3.3,10.128,10.128,0,0,0-5.129-1.213,10.849,10.849,0,0,0-5.229,1.232,8.718,8.718,0,0,0-3.559,3.539,11.364,11.364,0,0,0-1.272,5.567,11.362,11.362,0,0,0,1.272,5.567,8.649,8.649,0,0,0,3.6,3.538,11.5,11.5,0,0,0,5.468,1.233,12.191,12.191,0,0,0,3.8-.577,8.81,8.81,0,0,0,3.062-1.69,6.963,6.963,0,0,0,1.929-2.665l-4.334-1.67a4.565,4.565,0,0,1-1.67,1.869,6.024,6.024,0,0,1-5.547,0,4.39,4.39,0,0,1-1.75-2.048,6.871,6.871,0,0,1-.507-1.849h14.047q.08-.557.119-1.272t.04-1.511a9.952,9.952,0,0,0-1.113-4.752m-10.995.219a4.647,4.647,0,0,1,2.6-.716,3.946,3.946,0,0,1,3.2,1.352,5.22,5.22,0,0,1,1.083,2.9H160.6a7.35,7.35,0,0,1,.384-1.412,4.357,4.357,0,0,1,1.65-2.127" transform="translate(-10663.347 -18360.4)" fill="#2058e1"/><path d="M115.243,18.869a8.4,8.4,0,0,0-2.982-3.539,7.655,7.655,0,0,0-4.275-1.232,6.847,6.847,0,0,0-4.493,1.471,7.279,7.279,0,0,0-1.909,2.379V5.786L96.137,7.252V34.377h4.811l.209-4.155a7.986,7.986,0,0,0,.885,1.629A6.865,6.865,0,0,0,104.507,34a7.085,7.085,0,0,0,3.32.775,7.981,7.981,0,0,0,4.394-1.232A8.289,8.289,0,0,0,115.243,30a12.8,12.8,0,0,0,1.094-5.527,13.012,13.012,0,0,0-1.094-5.607m-5.607,10.16a4.493,4.493,0,0,1-5.846.855,4.576,4.576,0,0,1-1.63-2.108,8.6,8.6,0,0,1-.576-3.3,8.6,8.6,0,0,1,.576-3.3,4.907,4.907,0,0,1,1.61-2.147,4.466,4.466,0,0,1,5.885.815,7.328,7.328,0,0,1,1.232,4.592,7.238,7.238,0,0,1-1.252,4.593" transform="translate(-10644.944 -18356.641)" fill="#2058e1"/><path d="M143.95,30.713a4.418,4.418,0,0,1-3.1,1.113,2.9,2.9,0,0,1-2.008-.656,2.663,2.663,0,0,1-.736-2.088V19.738h6.363V15.682H138.1V9.6l-5.448,1.511v4.573H129v4.056h3.658v10.22a6.323,6.323,0,0,0,.855,3.5,4.878,4.878,0,0,0,2.386,1.909,9.636,9.636,0,0,0,3.519.6,10.3,10.3,0,0,0,3.022-.437,7.171,7.171,0,0,0,2.386-1.193Z" transform="translate(-10655.181 -18357.828)" fill="#2058e1"/><path d="M219.207,38.137V19.557l4.891-1.3.2,3.579a6.86,6.86,0,0,1,2.723-2.982,7.98,7.98,0,0,1,7.715,0,6.229,6.229,0,0,1,2.6,2.942,6.341,6.341,0,0,1,1.71-2.187,7.517,7.517,0,0,1,2.386-1.312,8.385,8.385,0,0,1,2.665-.437,7.93,7.93,0,0,1,3.559.8,6.1,6.1,0,0,1,2.565,2.386,7.786,7.786,0,0,1,.954,4.056V38.137H245.73V26.167a4.178,4.178,0,0,0-.954-3.1,3.419,3.419,0,0,0-2.466-.914,4.281,4.281,0,0,0-2.207.6,4.073,4.073,0,0,0-1.59,1.77,6.6,6.6,0,0,0-.576,2.922v10.7h-5.448V26.167a4.124,4.124,0,0,0-.974-3.1,3.489,3.489,0,0,0-2.486-.914,4.214,4.214,0,0,0-2.048.557,4.272,4.272,0,0,0-1.67,1.75,6.511,6.511,0,0,0-.656,3.141V38.137Z" transform="translate(-10683.278 -18360.4)" fill="#2058e1"/><path d="M206.525,34.352V24.907a7.027,7.027,0,0,0-1.091-3.792,6.637,6.637,0,0,0-3.04-2.445,11.866,11.866,0,0,0-4.572-.815,10.6,10.6,0,0,0-6.145,1.59,7.159,7.159,0,0,0-2.961,4.215l4.652,1.435A4.376,4.376,0,0,1,195,22.589a4.5,4.5,0,0,1,2.585-.755,3.518,3.518,0,0,1,2.565.951,3.578,3.578,0,0,1,.975,2.665v.767l-6.84,1.383a7.8,7.8,0,0,0-4.1,1.926,4.888,4.888,0,0,0-1.431,3.64,5.171,5.171,0,0,0,.8,2.941,4.905,4.905,0,0,0,2.266,1.81,9,9,0,0,0,3.5.616,9.171,9.171,0,0,0,3.16-.556,7.191,7.191,0,0,0,2.605-1.61,4.835,4.835,0,0,0,.569-.684l.152,2.784,4.4.021c.043,0,.085.006.129.006.068,0,.132,0,.2,0l.016-4.13Zm-5.4-3.532a4.2,4.2,0,0,1-.359,1.826,2.937,2.937,0,0,1-.995,1.195,4.33,4.33,0,0,1-1.431.636,6.564,6.564,0,0,1-1.63.2,3.006,3.006,0,0,1-1.77-.515,1.736,1.736,0,0,1-.735-1.515,1.655,1.655,0,0,1,.7-1.49,6.063,6.063,0,0,1,2.05-.735l4.176-.835Z" transform="translate(-10673.781 -18360.398)" fill="#2058e1"/><path d="M23.987,36.956a4.992,4.992,0,0,0,4.979-3.943L34.2,5.665A4.88,4.88,0,0,0,29.227.006L10.293,0A5,5,0,0,0,5.311,3.943L.965,26.68.083,31.294a4.88,4.88,0,0,0,4.976,5.653l6.666,0h.01a5.285,5.285,0,0,0,.713-.082,5.489,5.489,0,0,0,2.838-1.416,5,5,0,0,0,1.585-3.68,5.382,5.382,0,0,0-5.554-5.092s-6.89.022-7.222.034L24.788,12.141a1.426,1.426,0,0,1,2.243,1.474L20.347,35.8a.892.892,0,0,0,.883,1.126Z" transform="translate(-10615 -18354.838)" fill="#fec107"/></g></svg>