<svg xmlns="http://www.w3.org/2000/svg" xmlns:xlink="http://www.w3.org/1999/xlink" width="71.9" height="71.899" viewBox="0 0 71.9 71.899"><defs><clipPath id="a"><rect width="30.814" height="30.814" fill="#fff"/></clipPath></defs><circle cx="35.95" cy="35.95" r="35.95" fill="#f9f6f3"/><path d="M35.308-.5A35.817,35.817,0,0,1,49.246,68.3,35.817,35.817,0,0,1,21.37,2.314,35.584,35.584,0,0,1,35.308-.5Zm0,70.616A34.808,34.808,0,1,0,.5,35.308,34.847,34.847,0,0,0,35.308,70.116Z" transform="translate(0.642 0.642)" fill="rgba(0,0,0,0.14)"/><g transform="translate(20.543 20.543)" clip-path="url(#a)"><path d="M31.987,32.765H35.2l1.284-5.136H31.987V25.062c0-1.322,0-2.568,2.568-2.568h1.926V18.18A36.164,36.164,0,0,0,32.813,18c-3.486,0-5.961,2.127-5.961,6.034v3.595H23v5.136h3.852V43.679h5.136Z" transform="translate(-14.013 -15.432)" fill="#2058e1"/></g></svg>