<svg xmlns="http://www.w3.org/2000/svg" width="98" height="98" viewBox="0 0 98 98"><g transform="translate(-748 -2264)"><circle cx="49" cy="49" r="49" transform="translate(748 2264)" fill="#2058e1"/><g transform="translate(772 2288)"><path d="M51.957,62.382A10.422,10.422,0,1,0,41.536,51.96,10.422,10.422,0,0,0,51.957,62.382Z" transform="translate(-26.556 -26.557)" fill="#fff"/><path d="M38.449,60.5A20.2,20.2,0,0,1,20.3,42.357h-3.35a1.954,1.954,0,1,1,0-3.908H20.3A20.2,20.2,0,0,1,38.449,20.3v-3.35a1.954,1.954,0,0,1,3.908,0V20.3A20.2,20.2,0,0,1,60.5,38.449h3.35a1.954,1.954,0,1,1,0,3.908H60.5A20.2,20.2,0,0,1,42.357,60.5v3.35a1.954,1.954,0,1,1-3.908,0ZM40.4,24.119A16.284,16.284,0,1,0,56.687,40.4,16.284,16.284,0,0,0,40.4,24.119Z" transform="translate(-15 -15)" fill="#fff" fill-rule="evenodd"/></g></g></svg>