<svg xmlns="http://www.w3.org/2000/svg" width="71.9" height="71.899" viewBox="0 0 71.9 71.899"><circle cx="35.95" cy="35.95" r="35.95" fill="#f9f6f3"/><path d="M35.308-.5A35.817,35.817,0,0,1,49.246,68.3,35.817,35.817,0,0,1,21.37,2.314,35.584,35.584,0,0,1,35.308-.5Zm0,70.616A34.808,34.808,0,1,0,.5,35.308,34.847,34.847,0,0,0,35.308,70.116Z" transform="translate(0.642 0.642)" fill="rgba(0,0,0,0.14)"/><path d="M40.777,18.625H20.551a1.926,1.926,0,0,0-1.926,1.926V40.773A1.926,1.926,0,0,0,20.551,42.7H40.777A1.926,1.926,0,0,0,42.7,40.773V20.551a1.926,1.926,0,0,0-1.926-1.926ZM26.812,36.439a.963.963,0,0,1-1.926,0v-7.7a.963.963,0,0,1,1.926,0Zm-.963-10.111a1.444,1.444,0,1,1,1.022-.423A1.445,1.445,0,0,1,25.849,26.329ZM37.406,36.439a.963.963,0,0,1-1.926,0V32.106a2.408,2.408,0,0,0-4.816,0v4.333a.963.963,0,0,1-1.926,0v-7.7a.963.963,0,0,1,1.9-.217,4.334,4.334,0,0,1,6.766,3.587Z" transform="translate(5.288 5.288)" fill="#2058e1"/></svg>