<svg xmlns="http://www.w3.org/2000/svg" width="98" height="98" viewBox="0 0 98 98"><g transform="translate(-1288 -2264)"><circle cx="49" cy="49" r="49" transform="translate(1288 2264)" fill="#2058e1"/><g transform="translate(1312 2289)"><ellipse cx="10.676" cy="10.676" rx="10.676" ry="10.676" transform="translate(7.625)" fill="#fff"/><ellipse cx="18.301" cy="9.913" rx="18.301" ry="9.913" transform="translate(0 28.977)" fill="#fff"/><path d="M94.176,77.825c0,4.32-5.307,7.822-11.788,7.822A11.1,11.1,0,0,0,82.381,70C88.861,70,94.176,73.5,94.176,77.825Z" transform="translate(-44.411 -38.712)" fill="#fff"/><path d="M80.36,22.826a7.828,7.828,0,0,1-10.5,7.351,14.92,14.92,0,0,0,0-14.7,7.828,7.828,0,0,1,10.5,7.352Z" transform="translate(-38.417 -12.394)" fill="#fff"/></g></g></svg>