<svg xmlns="http://www.w3.org/2000/svg" width="54" height="54" viewBox="0 0 54 54"><g transform="translate(-979 -1849)"><rect width="54" height="54" rx="8" transform="translate(979 1849)" fill="#fff"/><g transform="translate(941 1825.004)"><path d="M48,55.538V88.732a.366.366,0,0,0,.622.259L65.906,72.136,48.623,55.279a.366.366,0,0,0-.622.259Z" transform="translate(0 -21.219)"/><path d="M104.912,43.991,83.24,32.051l-.014-.008a.369.369,0,0,0-.422.6L99.792,48.884Z" transform="translate(-31.758 0)"/><path d="M82.813,296.3a.369.369,0,0,0,.422.6l.014-.008,21.67-11.94L99.8,280.05Z" transform="translate(-31.766 -227.101)"/><path d="M322.1,194.873l-6.052-3.333-5.69,5.445,5.69,5.442,6.052-3.33A2.423,2.423,0,0,0,322.1,194.873Z" transform="translate(-240.2 -146.067)"/></g></g></svg>