<svg xmlns="http://www.w3.org/2000/svg" width="54" height="54" viewBox="0 0 54 54"><g transform="translate(-705 -1848)"><rect width="54" height="54" rx="8" transform="translate(705 1848)" fill="#fff"/><g transform="translate(-7.03 -7)"><path d="M28.383,35.564H7.181A7.2,7.2,0,0,1,0,28.383V7.181A7.187,7.187,0,0,1,7.181,0h21.2a7.2,7.2,0,0,1,7.181,7.181v21.2A7.211,7.211,0,0,1,28.383,35.564Z" transform="translate(721 1864)"/><path d="M20.632,22.061l-5.771-10a6.262,6.262,0,0,1-.745-3.031A3.57,3.57,0,0,1,15.3,6.3l4.686,8.135h4.268a1.622,1.622,0,0,1,0,3.244h-2.4l1.58,2.738a1.659,1.659,0,0,1-.593,2.232,1.6,1.6,0,0,1-2.21-.592Zm-17.616.547A1.613,1.613,0,0,1,2.423,20.4l1.025-1.766s.251-.494,1.223-.494a2.61,2.61,0,0,1,2.095,1.176l-1.541,2.7a1.591,1.591,0,0,1-2.209.592Zm-1.4-4.926a1.622,1.622,0,0,1,0-3.244H5.866l5.192-8.986c-.008-.016-.018-.029-.023-.043L9.317,2.418A1.63,1.63,0,0,1,9.91.209,1.645,1.645,0,0,1,12.12.8l.81,1.412.808-1.4A1.6,1.6,0,0,1,15.946.23a1.617,1.617,0,0,1,.593,2.209l-6.936,12h4.779a2.5,2.5,0,0,1,1.89,1.236,1.552,1.552,0,0,1,.054,2.008Z" transform="translate(725.7 1870.619)" fill="#fff"/></g></g></svg>