<svg xmlns="http://www.w3.org/2000/svg" width="67.492" height="67.502" viewBox="0 0 67.492 67.502"><path d="M24.366,8.227a2.414,2.414,0,0,1,4.478-1.808l2.411,6.027a2.414,2.414,0,0,1-4.478,1.808ZM6.416,28.847l6.026,2.411A2.414,2.414,0,0,0,14.25,26.78L8.224,24.369a2.414,2.414,0,0,0-1.808,4.478ZM66.078,43.654l-6.026-2.411a2.414,2.414,0,0,0-1.808,4.478l6.026,2.411a2.414,2.414,0,0,0,1.808-4.478ZM45.718,58.247a2.414,2.414,0,0,0-4.478,1.808l2.411,6.027a2.414,2.414,0,0,0,4.478-1.808ZM69.365,3.261A2.411,2.411,0,0,0,65.9,3.207L50.108,19l-1.621-1.621a9.642,9.642,0,0,0-13.644,0L29.66,22.552a1.206,1.206,0,0,0,0,1.706l18.592,18.58a1.2,1.2,0,0,0,1.705,0L55,37.793a9.873,9.873,0,0,0,2.956-6.786,9.588,9.588,0,0,0-2.823-6.982l-1.621-1.618L69.242,6.687a2.477,2.477,0,0,0,.124-3.426ZM23.483,24.9a2.411,2.411,0,0,0-3.462.054,2.477,2.477,0,0,0,.124,3.426l1.841,1.841-4.619,4.613a9.588,9.588,0,0,0-2.814,6.979A9.869,9.869,0,0,0,17.5,48.6L19,50.093,3.249,65.82a2.474,2.474,0,0,0-.184,3.345,2.411,2.411,0,0,0,3.532.129L22.386,53.5,24,55.122a9.672,9.672,0,0,0,13.647,0l4.622-4.616,1.91,1.913a2.412,2.412,0,0,0,3.411-3.411Z" transform="translate(-2.501 -2.499)" fill="#fff"/></svg>