<svg xmlns="http://www.w3.org/2000/svg" width="71.9" height="71.899" viewBox="0 0 71.9 71.899"><circle cx="35.95" cy="35.95" r="35.95" fill="#f9f6f3"/><path d="M35.308-.5A35.817,35.817,0,0,1,49.246,68.3,35.817,35.817,0,0,1,21.37,2.314,35.584,35.584,0,0,1,35.308-.5Zm0,70.616A34.808,34.808,0,1,0,.5,35.308,34.847,34.847,0,0,0,35.308,70.116Z" transform="translate(0.642 0.642)" fill="rgba(0,0,0,0.14)"/><path d="M28.854,32.7A3.852,3.852,0,1,0,25,28.852,3.852,3.852,0,0,0,28.854,32.7Z" transform="translate(7.099 7.098)" fill="#2058e1"/><path d="M35.962,18.625H25.367a6.741,6.741,0,0,0-6.742,6.741V35.958A6.741,6.741,0,0,0,25.367,42.7H35.962A6.741,6.741,0,0,0,42.7,35.958V25.366a6.741,6.741,0,0,0-6.742-6.741Zm-5.3,17.814a5.778,5.778,0,1,1,4.086-1.692A5.78,5.78,0,0,1,30.664,36.439Zm6.26-10.592a1.445,1.445,0,1,1,1.022-.423A1.445,1.445,0,0,1,36.925,25.847Z" transform="translate(5.288 5.288)" fill="#2058e1"/></svg>