<svg xmlns="http://www.w3.org/2000/svg" width="62.675" height="67.496" viewBox="0 0 62.675 67.496"><path d="M66.425,35.087V59.194A12.053,12.053,0,0,1,54.372,71.247H37.5a2.411,2.411,0,1,1,0-4.821H54.372A7.232,7.232,0,0,0,61.6,59.194H54.372a7.232,7.232,0,0,1-7.232-7.232V39.909a7.232,7.232,0,0,1,7.232-7.232H61.5a26.519,26.519,0,0,0-52.819,0H15.8a7.231,7.231,0,0,1,7.232,7.232V51.962A7.232,7.232,0,0,1,15.8,59.194H10.982A7.232,7.232,0,0,1,3.75,51.962V35.087a31.338,31.338,0,1,1,62.675,0Z" transform="translate(-3.75 -3.75)" fill="#fff"/></svg>