<svg xmlns="http://www.w3.org/2000/svg" width="72.318" height="57.863" viewBox="0 0 72.318 57.863"><path d="M38.6,13.812A10.848,10.848,0,0,1,55.22,5.429a1.205,1.205,0,0,1-.169,2.109A15.687,15.687,0,0,0,45.8,21.833a10.189,10.189,0,0,0,.036,1.052,1.205,1.205,0,0,1-1.808,1.133A10.847,10.847,0,0,1,38.6,13.812ZM72.317,44.918a7.373,7.373,0,0,1-4.1,6.629l-.132.06-11.7,4.984a2.064,2.064,0,0,1-.359.121L36.743,61.533a2.39,2.39,0,0,1-.585.075H4.821A4.821,4.821,0,0,1,0,56.787V44.734a4.821,4.821,0,0,1,4.821-4.821h8.645l6.816-6.819A9.588,9.588,0,0,1,27.1,30.271H42.185A8.437,8.437,0,0,1,50.4,40.651L63,37.753a7.415,7.415,0,0,1,9.314,7.165Zm-4.821,0a2.594,2.594,0,0,0-3.275-2.5l-.094.024L43.939,47.085a2.512,2.512,0,0,1-.539.06H33.748a2.411,2.411,0,1,1,0-4.821h8.437a3.616,3.616,0,0,0,0-7.232H27.1a4.78,4.78,0,0,0-3.408,1.413l-6.819,6.816V56.787H35.858l18.811-4.7,11.45-4.875a2.58,2.58,0,0,0,1.377-2.29ZM50.622,21.833A10.848,10.848,0,1,0,53.8,14.163,10.848,10.848,0,0,0,50.622,21.833Z" transform="translate(0 -3.746)" fill="#fff"/></svg>