<svg xmlns="http://www.w3.org/2000/svg" width="57.854" height="65.086" viewBox="0 0 57.854 65.086"><path d="M58.033,22.945H48.39V15.714a14.463,14.463,0,1,0-28.927,0v7.232H9.821A4.821,4.821,0,0,0,5,27.767V61.515a4.821,4.821,0,0,0,4.821,4.821H58.033a4.821,4.821,0,0,0,4.821-4.821V27.767a4.821,4.821,0,0,0-4.821-4.821Zm-21.7,23.693v7.645a2.411,2.411,0,1,1-4.821,0V46.639a7.232,7.232,0,1,1,4.821,0Zm7.232-23.693H24.285V15.714a9.642,9.642,0,1,1,19.285,0Z" transform="translate(-5 -1.25)" fill="#fff"/></svg>