<svg xmlns="http://www.w3.org/2000/svg" width="57.854" height="57.854" viewBox="0 0 57.854 57.854"><path d="M58.033,5H9.821A4.821,4.821,0,0,0,5,9.821V58.033a4.821,4.821,0,0,0,4.821,4.821H58.033a4.821,4.821,0,0,0,4.821-4.821V9.821A4.821,4.821,0,0,0,58.033,5ZM19.463,55.623a2.41,2.41,0,0,1-1.706-.705L12.937,50.1a2.412,2.412,0,0,1,3.411-3.411L19.463,49.8,29.811,39.454a2.412,2.412,0,0,1,3.411,3.411L21.169,54.918a2.41,2.41,0,0,1-1.706.705Zm36.159-2.411a2.41,2.41,0,0,1-2.411,2.411H36.338a2.411,2.411,0,1,1,0-4.821H50.8V17.053H17.053V36.338a2.411,2.411,0,1,1-4.821,0v-21.7a2.411,2.411,0,0,1,2.411-2.411H53.212a2.411,2.411,0,0,1,2.411,2.411Z" transform="translate(-5 -5)" fill="#fff"/></svg>