<svg xmlns="http://www.w3.org/2000/svg" width="98" height="98" viewBox="0 0 98 98"><g transform="translate(-208 -2264)"><circle cx="49" cy="49" r="49" transform="translate(208 2264)" fill="#2058e1"/><path d="M40.758,16.44l5.225,10.5a2.608,2.608,0,0,0,1.967,1.406l11.736,1.709a2.629,2.629,0,0,1,1.728,1.01,2.538,2.538,0,0,1,.493,1.914,2.61,2.61,0,0,1-.753,1.484l-8.5,8.244a2.478,2.478,0,0,0-.753,2.261l2.094,11.589A2.617,2.617,0,0,1,51.9,59.541a2.74,2.74,0,0,1-1.676-.268L39.751,53.819a2.743,2.743,0,0,0-2.472,0L26.811,59.273a2.682,2.682,0,0,1-3.6-1.049,2.654,2.654,0,0,1-.272-1.641l2.094-11.592a2.49,2.49,0,0,0-.753-2.263l-8.5-8.239a2.545,2.545,0,0,1-.068-3.6l.068-.068a2.529,2.529,0,0,1,1.507-.74l11.736-1.712a2.614,2.614,0,0,0,1.967-1.409L36.026,16.44A2.6,2.6,0,0,1,38.413,15h.314A2.618,2.618,0,0,1,40.758,16.44Z" transform="translate(219 2276)" fill="#fff"/></g></svg>