<svg xmlns="http://www.w3.org/2000/svg" width="71.9" height="71.899" viewBox="0 0 71.9 71.899"><circle cx="35.95" cy="35.95" r="35.95" fill="#f9f6f3"/><path d="M35.308-.5A35.817,35.817,0,0,1,49.246,68.3,35.817,35.817,0,0,1,21.37,2.314,35.584,35.584,0,0,1,35.308-.5Zm0,70.616A34.808,34.808,0,1,0,.5,35.308,34.847,34.847,0,0,0,35.308,70.116Z" transform="translate(0.642 0.642)" fill="rgba(0,0,0,0.14)"/><path d="M40.815,41.611a.963.963,0,0,1-.843.5H34.195a.962.962,0,0,1-.812-.447l-4.874-7.659L21.426,41.8A.963.963,0,0,1,20,40.5l7.435-8.185L19.9,20.48A.963.963,0,0,1,20.713,19h5.778a.963.963,0,0,1,.812.447l4.874,7.659,7.083-7.79a.963.963,0,0,1,1.425,1.3L33.25,28.79l7.535,11.842a.963.963,0,0,1,.03.98Z" transform="translate(5.608 5.395)" fill="#2058e1"/></svg>